<svg width="56" height="56" xmlns="http://www.w3.org/2000/svg" viewBox="136.6875 14 226.625 122" style="background: rgba(0, 0, 0, 0);" preserveAspectRatio="xMidYMid"><defs><filter id="editing-extrusion" x="-100%" y="-100%" width="300%" height="300%"><feFlood result="color1" flood-color="#444"></feFlood><feConvolveMatrix order="8,8" divisor="1" kernelMatrix="1 0 0 0 0 0 0 0 0 1 0 0 0 0 0 0 0 0 1 0 0 0 0 0 0 0 0 1 0 0 0 0 0 0 0 0 1 0 0 0 0 0 0 0 0 1 0 0 0 0 0 0 0 0 1 0 0 0 0 0 0 0 0 1" in="SourceAlpha" result="extrude"></feConvolveMatrix><feComposite in="color1" in2="extrude" result="comp-extrude" operator="in"></feComposite><feOffset dx="4" dy="4" in="comp-extrude" result="offset-extrude"></feOffset><feMerge><feMergeNode in="offset-extrude"></feMergeNode><feMergeNode in="SourceGraphic"></feMergeNode></feMerge></filter></defs><g filter="url(#editing-extrusion)"><g transform="translate(173.61501550674438, 97.43000030517578)"><path d="M2.69-39.68L2.69-39.68L2.69-39.68Q3.58-41.47 5.54-42.46L5.54-42.46L5.54-42.46Q7.49-43.46 10.18-43.46L10.18-43.46L10.18-43.46Q14.40-43.46 16.93-40.42L16.93-40.42L16.93-40.42Q19.46-37.38 19.46-30.72L19.46-30.72L19.46-7.87L34.11-42.18L41.66-42.18L43.39-9.79L43.20-7.94L58.43-42.18L67.20-42.18L46.72 0L33.09 0L31.81-19.46L23.36 0L7.94 0L6.02-30.72L6.02-30.72Q5.82-34.18 4.90-36.45L4.90-36.45L4.90-36.45Q3.97-38.72 2.69-39.68ZM64.96-15.62L64.96-15.62L64.96-15.62Q64.96-27.71 71.23-35.33L71.23-35.33L71.23-35.33Q77.89-43.58 89.47-43.58L89.47-43.58L89.47-43.58Q97.86-43.58 102.08-39.52L102.08-39.52L102.08-39.52Q106.30-35.46 106.30-26.88L106.30-26.88L106.30-26.88Q106.30-13.82 99.65-6.21L99.65-6.21L99.65-6.21Q93.06 1.28 81.98 1.28L81.98 1.28L81.98 1.28Q73.34 1.28 69.15-3.04L69.15-3.04L69.15-3.04Q64.96-7.36 64.96-15.62ZM81.79-28.86L81.79-28.86L81.79-28.86Q78.91-17.34 78.91-8.26L78.91-8.26L78.91-8.26Q78.91-6.08 79.65-4.67L79.65-4.67L79.65-4.67Q80.38-3.26 82.34-3.26L82.34-3.26L82.34-3.26Q84.29-3.26 85.50-4.19L85.50-4.19L85.50-4.19Q86.72-5.12 87.68-7.23L87.68-7.23L87.68-7.23Q89.22-10.69 90.66-18.02L90.66-18.02L90.66-18.02Q92.10-25.34 92.22-28.38L92.22-28.38L92.22-28.38Q92.35-31.42 92.35-33.73L92.35-33.73L92.35-33.73Q92.35-36.03 91.65-37.50L91.65-37.50L91.65-37.50Q90.94-38.98 89.06-38.98L89.06-38.98L89.06-38.98Q87.17-38.98 85.89-37.82L85.89-37.82L85.89-37.82Q83.52-35.65 81.79-28.86ZM122.56 0L108.86 0L116.67-42.05L116.67-42.05Q123.01-42.75 132.26-42.75L132.26-42.75L132.26-42.75Q141.50-42.75 145.79-40.06L145.79-40.06L145.79-40.06Q150.08-37.38 150.08-31.97L150.08-31.97L150.08-31.97Q150.08-26.56 147.30-23.17L147.30-23.17L147.30-23.17Q144.51-19.78 139.71-18.69L139.71-18.69L139.71-18.69Q140.80-13.38 143.30-9.09L143.30-9.09L143.30-9.09Q145.60-5.06 148.29-3.78L148.29-3.78L148.29-3.78Q147.33-1.09 145.38 0.10L145.38 0.10L145.38 0.10Q143.42 1.28 140.64 1.28L140.64 1.28L140.64 1.28Q137.86 1.28 135.68-0.35L135.68-0.35L135.68-0.35Q133.50-1.98 131.78-4.99L131.78-4.99L131.78-4.99Q128.13-11.52 127.74-21.82L127.74-21.82L128.19-21.82L128.19-21.82Q132.93-21.95 135.30-24.42L135.30-24.42L135.30-24.42Q137.66-26.88 137.66-32.06L137.66-32.06L137.66-32.06Q137.66-38.53 132.22-38.78L132.22-38.78L130.82-38.78L130.82-38.78Q130.24-38.78 129.92-38.72L129.92-38.72L122.56 0Z" fill="blue"></path></g></g><style>
</style></svg>